HIERARCHY
ROOT hip
{
  OFFSET 0 0 0
  CHANNELS 6 Xposition Yposition Zposition Zrotation Yrotation Xrotation
  JOINT abdomen
  {
    OFFSET 0 20.6881 -0.73152
    CHANNELS 3 Zrotation Xrotation Yrotation
    JOINT chest
    {
      OFFSET 0 11.7043 -0.48768
      CHANNELS 3 Zrotation Xrotation Yrotation
      JOINT neck
      {
        OFFSET 0 22.1894 -2.19456
        CHANNELS 3 Zrotation Xrotation Yrotation
        JOINT head
        {
          OFFSET -0.24384 7.07133 1.2192
          CHANNELS 3 Zrotation Xrotation Yrotation
          JOINT leftEye
          {
            OFFSET 4.14528 8.04674 8.04672
            CHANNELS 3 Zrotation Xrotation Yrotation
            End Site
            {
              OFFSET 1 0 0
            }
          }
          JOINT rightEye
          {
            OFFSET -3.6576 8.04674 8.04672
            CHANNELS 3 Zrotation Xrotation Yrotation
            End Site
            {
              OFFSET 1 0 0
            }
          }
        }
      }
      JOINT rCollar
      {
        OFFSET -2.68224 19.2634 -4.8768
        CHANNELS 3 Zrotation Xrotation Yrotation
        JOINT rShldr
        {
          OFFSET -8.77824 -1.95073 1.46304
          CHANNELS 3 Zrotation Xrotation Yrotation
          JOINT rForeArm
          {
            OFFSET -28.1742 -1.7115 0.48768
            CHANNELS 3 Zrotation Xrotation Yrotation
            JOINT rHand
            {
              OFFSET -22.5879 0.773209 7.07136
              CHANNELS 3 Zrotation Xrotation Yrotation
              JOINT rThumb1
              {
                OFFSET -1.2192 -0.487915 3.41376
                CHANNELS 3 Zrotation Xrotation Yrotation
                JOINT rThumb2
                {
                  OFFSET -3.37035 -0.52449 3.41376
                  CHANNELS 3 Zrotation Xrotation Yrotation
                  End Site
                  {
                    OFFSET -1.78271 -1.18214 1.43049
                  }
                }
              }
              JOINT rIndex1
              {
                OFFSET -7.75947 0.938293 5.60832
                CHANNELS 3 Zrotation Xrotation Yrotation
                JOINT rIndex2
                {
                  OFFSET -2.54057 -0.884171 1.56538
                  CHANNELS 3 Zrotation Xrotation Yrotation
                  End Site
                  {
                    OFFSET -1.62519 -0.234802 1.16502
                  }
                }
              }
              JOINT rMid1
              {
                OFFSET -8.24714 1.18213 3.41376
                CHANNELS 3 Zrotation Xrotation Yrotation
                JOINT rMid2
                {
                  OFFSET -3.10165 -0.590103 1.0647
                  CHANNELS 3 Zrotation Xrotation Yrotation
                  End Site
                  {
                    OFFSET -2.48547 -0.328903 0.83742
                  }
                }
              }
              JOINT rRing1
              {
                OFFSET -8.82822 0.546677 1.51678
                CHANNELS 3 Zrotation Xrotation Yrotation
                JOINT rRing2
                {
                  OFFSET -2.60934 -0.819778 -0.0198488
                  CHANNELS 3 Zrotation Xrotation Yrotation
                  End Site
                  {
                    OFFSET -2.33842 -0.294052 0.168128
                  }
                }
              }
              JOINT rPinky1
              {
                OFFSET -8.27202 -0.0477905 -0.4584
                CHANNELS 3 Zrotation Xrotation Yrotation
                JOINT rPinky2
                {
                  OFFSET -1.82734 -0.647385 -0.700984
                  CHANNELS 3 Zrotation Xrotation Yrotation
                  End Site
                  {
                    OFFSET -1.69225 -0.51767 -0.607171
                  }
                }
              }
            }
          }
        }
      }
      JOINT lCollar
      {
        OFFSET 2.68224 19.2634 -4.8768
        CHANNELS 3 Zrotation Xrotation Yrotation
        JOINT lShldr
        {
          OFFSET 8.77824 -1.95073 1.46304
          CHANNELS 3 Zrotation Xrotation Yrotation
          JOINT lForeArm
          {
            OFFSET 28.1742 -1.7115 0.48768
            CHANNELS 3 Zrotation Xrotation Yrotation
            JOINT lHand
            {
              OFFSET 22.5879 0.773209 7.07136
              CHANNELS 3 Zrotation Xrotation Yrotation
              JOINT lThumb1
              {
                OFFSET 1.2192 -0.487915 3.41376
                CHANNELS 3 Zrotation Xrotation Yrotation
                JOINT lThumb2
                {
                  OFFSET 3.37035 -0.52449 3.41376
                  CHANNELS 3 Zrotation Xrotation Yrotation
                  End Site
                  {
                    OFFSET 1.78271 -1.18214 1.43049
                  }
                }
              }
              JOINT lIndex1
              {
                OFFSET 7.75947 0.938293 5.60832
                CHANNELS 3 Zrotation Xrotation Yrotation
                JOINT lIndex2
                {
                  OFFSET 2.54057 -0.884171 1.56538
                  CHANNELS 3 Zrotation Xrotation Yrotation
                  End Site
                  {
                    OFFSET 1.62519 -0.234802 1.16502
                  }
                }
              }
              JOINT lMid1
              {
                OFFSET 8.24714 1.18213 3.41376
                CHANNELS 3 Zrotation Xrotation Yrotation
                JOINT lMid2
                {
                  OFFSET 3.10165 -0.590103 1.0647
                  CHANNELS 3 Zrotation Xrotation Yrotation
                  End Site
                  {
                    OFFSET 2.48547 -0.328903 0.83742
                  }
                }
              }
              JOINT lRing1
              {
                OFFSET 8.82822 0.546677 1.51678
                CHANNELS 3 Zrotation Xrotation Yrotation
                JOINT lRing2
                {
                  OFFSET 2.60934 -0.819778 -0.0198488
                  CHANNELS 3 Zrotation Xrotation Yrotation
                  End Site
                  {
                    OFFSET 2.33842 -0.294052 0.168128
                  }
                }
              }
              JOINT lPinky1
              {
                OFFSET 8.27202 -0.0477905 -0.4584
                CHANNELS 3 Zrotation Xrotation Yrotation
                JOINT lPinky2
                {
                  OFFSET 1.82734 -0.647385 -0.700984
                  CHANNELS 3 Zrotation Xrotation Yrotation
                  End Site
                  {
                    OFFSET 1.69225 -0.51767 -0.607171
                  }
                }
              }
            }
          }
        }
      }
    }
  }
  JOINT rButtock
  {
    OFFSET -8.77824 4.35084 1.2192
    CHANNELS 3 Zrotation Xrotation Yrotation
    JOINT rThigh
    {
      OFFSET 0 -1.70687 -2.19456
      CHANNELS 3 Zrotation Xrotation Yrotation
      JOINT rShin
      {
        OFFSET 0 -36.8199 0.73152
        CHANNELS 3 Zrotation Xrotation Yrotation
        JOINT rFoot
        {
          OFFSET 0.73152 -45.1104 -5.12064
          CHANNELS 3 Zrotation Xrotation Yrotation
          End Site
          {
            OFFSET -1.1221 -3.69964 12.103
          }
        }
      }
    }
  }
  JOINT lButtock
  {
    OFFSET 8.77824 4.35084 1.2192
    CHANNELS 3 Zrotation Xrotation Yrotation
    JOINT lThigh
    {
      OFFSET 0 -1.70687 -2.19456
      CHANNELS 3 Zrotation Xrotation Yrotation
      JOINT lShin
      {
        OFFSET 0 -36.8199 0.73152
        CHANNELS 3 Zrotation Xrotation Yrotation
        JOINT lFoot
        {
          OFFSET -0.73152 -45.1104 -5.12064
          CHANNELS 3 Zrotation Xrotation Yrotation
          End Site
          {
            OFFSET 1.1221 -3.69964 12.103
          }
        }
      }
    }
  }
}
MOTION
Frames:	7
Frame Time:	0.03333
0.0 0.0 0.0 0.0 0.0 0.0 0.0 0.0 0.0 0.0 0.0 0.0 0.0 0.0 0.0 0.0 0.0 0.0 0.0 0.0 0.0 0.0 0.0 0.0 0.0 0.0 0.0 0.0 0.0 0.0 0.0 0.0 0.0 0.0 0.0 0.0 0.0 0.0 0.0 0.0 0.0 0.0 0.0 0.0 0.0 0.0 0.0 0.0 0.0 0.0 0.0 0.0 0.0 0.0 0.0 0.0 0.0 0.0 0.0 0.0 0.0 0.0 0.0 0.0 0.0 0.0 0.0 0.0 0.0 0.0 0.0 0.0 0.0 0.0 0.0 0.0 0.0 0.0 0.0 0.0 0.0 0.0 0.0 0.0 0.0 0.0 0.0 0.0 0.0 0.0 0.0 0.0 0.0 0.0 0.0 0.0 0.0 0.0 0.0 0.0 0.0 0.0 0.0 0.0 0.0 0.0 0.0 0.0 0.0 0.0 0.0 0.0 0.0 0.0 0.0 0.0 0.0 0.0 0.0 0.0 0.0 0.0 0.0 0.0 0.0 0.0 0.0 0.0 0.0 0.0 0.0 0.0
0.1858 62.4122 -0.07479999999999999 -0.29809 -49.293259 -1.171073 1.369031 3.466184 -16.833218 8.155737 3.53284 -57.603754 8.524282 -15.944977 66.109822 26.878571 -26.08243 35.439931 140.562218 -5.56849 15.453912 11.206395 5.387072 51.238595 -60.305356 32.730024 137.7619 19.92354 -15.760788 14.837539 107.121878 -83.039896 -102.865281 -75.611197 71.052623 -5.613052 -171.217363 -19.551006 49.675461 124.083699 -19.076414 -131.110491 154.414042 11.851301 -117.862349 -23.635446 1.416782 -136.260223 -18.679261 -5.900454 -132.318235 -17.779351 -2.017244 37.439897 -98.329564 29.111478 -106.035945 -141.064314 -47.88983 169.64664 42.379692 14.69163 -73.97389 -99.528084 -72.063289 -110.046332 -69.096763 18.148064 -6.880069 -18.630398 -40.303284 -8.554 6.606816 75.71319 -161.509293 88.414782 67.880053 -3.520984 -4.51496 -10.229098 -42.089653 26.257521 31.183433 -4.209711 159.190734 -10.911017 -62.498222 -176.732162 -3.836576 -89.985607 121.275087 -4.591124 -126.060382 -41.438126 57.535131 -74.01129 145.916284 39.239308 85.980685 142.104562 63.746993 -174.296452 -21.654983 17.329199 64.862628 145.050043 61.467414 160.823614 -38.859789 -24.666356 -58.727447 1.444714 45.765511 0.935432 5.883728 -3.972712 54.318292 67.471295 17.462217 -85.642938 47.976161 13.162044 94.519428 -6.041322 50.122634 -1.964569 6.293249 -3.492942 72.27711 73.625397 8.175965 -101.157455
0.12539999999999998 56.9438 -2.5826000000000002 -11.265954 -36.969223 11.870971 3.37405 14.509128 91.254488 -7.798944 -1.759156 -78.31736 1.923001 9.903109 21.20276 -5.725237 -17.906494 -13.695523 -6.640917 -0.573886 9.867152 5.771871 -1.054972 -20.699592 -143.787426 38.850187 148.342752 -38.324408 -0.041361 32.00727 30.993089 26.753902 -147.961526 -168.611744 22.20822 134.313999 171.811823 -37.547658 88.345111 -11.482148 -42.056664 3.15638 -3.944362 -18.157792 -11.919591 47.907894 -54.179132 -27.569294 -126.53096 44.301518 128.296883 -102.547784 86.812552 110.526725 -161.530015 32.862495 170.6072 168.239449 -20.356178 176.897581 -29.78288 45.011162 42.91317 -117.168334 59.575895 -176.752797 -0.696489 -36.560019 5.663721 103.532664 25.836459 -168.771487 9.634741 33.649359 110.976628 -164.533223 -20.908676 -139.472806 15.651714 9.000828 -1.875714 19.723506 -81.437254 106.46983 111.814945 30.806938 -98.407209 2.837003 31.491784 8.599657 29.920581 47.541655 -19.896174 4.787669 1.629027 10.562171 141.412399 -28.95946 154.66932 -55.62599 5.128415 43.59846 -1.332953 -33.177151 21.50857 -177.763358 30.540362 -159.478011 -175.138971 80.738716 -9.368847 140.663037 41.96048 12.68652 -42.688407 74.370444 -22.103782 -130.140637 -60.830188 -41.51758 -12.464911 4.156389 -9.100754 94.586593 -48.695466 174.481459 89.929709 -10.433875 -175.359477 41.407436 64.758316 46.216278
0.7877000000000001 51.4487 -3.2426999999999997 -7.270885 -41.154913 11.866323 2.170832 20.751289 -9.118233 -0.502292 -12.73932 17.733162 14.4416 16.085779 58.459464 -30.810001 -0.925415 -44.430601 31.198259 7.098346 25.050649 -39.533622 -0.443917 1.23523 -12.791224 40.92701 16.755459 -35.56804 40.168097 82.460146 -109.888237 -81.162796 -9.574505 2.01192 -0.757526 -0.216173 -9.433471 22.87774 -14.52858 -176.110706 -61.902574 71.792618 -159.52143 -14.628854 141.060249 -112.469863 61.209769 93.149594 1.382242 21.565859 -4.371102 166.809326 1.132631 142.051163 -83.190525 -53.918311 -76.625766 30.253296 -11.150738 -6.743836 -29.261492 46.894675 18.500578 -23.330437 74.443569 78.661982 7.062842 18.345699 -1.906433 -62.85894 -9.374694 -53.606754 -39.198134 -7.494158 -108.846531 17.107541 43.454494 4.479878 -168.59866 -11.823353 -82.828931 147.994172 29.324529 -24.40522 174.922665 34.897247 -116.015323 -63.378525 -60.99021 -97.559389 35.871426 55.851359 -59.848268 170.287761 6.427753 168.326323 95.850332 50.035549 -99.826512 -29.960296 -46.83798 -21.132445 -23.372133 68.292144 27.476496 19.477895 32.415316 -14.945159 114.633205 54.868126 48.635131 170.41163 18.092819 -175.50297 -156.685548 -78.839017 124.123388 -74.487386 -50.83298 -137.810972 -179.405231 65.356682 -0.112701 -146.796138 -25.252805 -144.524862 -111.534636 -56.454981 4.835828 50.296702 39.3867 37.357377
1.8894000000000002 47.1372 -1.8813 -5.203983 -47.009292 11.931475 -3.795429 20.479114 8.481699 -1.432808 -13.305997 6.686414 -8.115991 24.779328 -58.414364 36.398615 -7.471777 80.018507 -19.214681 -2.075681 12.217447 -35.354399 -4.780115 14.922462 -159.490696 -5.128579 164.553376 -41.593562 -15.073537 -8.608601 -23.079763 40.846963 -121.607024 160.357918 -35.0387 141.407643 -2.799519 13.487095 -17.538608 -103.677542 -12.259615 87.749396 -68.600098 59.548776 50.209724 -165.268208 -18.208474 116.660103 131.457681 -80.666688 99.345981 -151.901471 21.824389 134.502005 2.226615 36.131573 -10.3494 -10.237164 -59.668402 4.520016 -56.81593 -47.444457 -50.276714 -19.411345 68.582477 30.018239 -3.996984 -45.641465 4.833811 106.666949 -40.420855 172.234368 -35.871862 -45.557365 111.768865 168.213084 23.133699 -136.067216 173.274155 -2.612045 -81.848959 -35.426283 -52.291419 -75.508493 6.631246 29.289656 35.755291 -3.52422 -0.253984 -53.177856 42.806722 55.098293 -42.391953 175.024384 -75.802265 -135.253917 -6.047958 -59.881465 -9.297315 -161.45802 57.222214 157.216268 -116.242005 77.917999 123.176711 172.474134 -38.277196 -173.915478 6.84332 -1.496141 6.050851 -72.488593 -38.245529 177.569108 -126.374335 -48.589174 -62.22196 48.626705 -18.155309 129.118426 141.192835 68.845276 33.417659 -132.15226 -26.299618 130.059499 121.07381 -34.708928 176.202951 -153.468336 54.728397 -122.278673
3.1723 45.4865 -0.1213 -8.176682 -53.94732 15.01847 -3.579731 13.826965 -147.993508 2.880875 6.554544 169.273155 -15.258067 19.958697 -56.627018 37.195629 5.009349 86.787128 -42.438808 4.935393 -12.667447 -39.734047 -6.179785 16.993143 1.439193 -37.753341 -6.76066 -105.04496 -52.717708 -159.713814 -164.421067 1.543714 -79.012043 0.50826 13.780422 4.147736 -7.389562 16.846274 -5.400379 -136.463228 -4.189876 89.122172 -164.064732 -49.087738 147.948353 15.694794 -17.084511 -23.111461 25.7825 -55.465534 10.819213 -172.797615 -14.007568 138.806527 -6.149966 39.26252 1.941714 170.174153 -9.012943 -178.711842 -147.106834 -2.170491 -135.495147 -150.410653 43.895547 -157.559947 53.330776 62.275907 -57.96603 -88.365565 -36.064003 -93.471324 20.451828 -40.403251 -87.63618 1.489846 -20.237965 0.514675 5.321151 -12.881855 4.424293 116.531859 -9.657186 -140.218035 107.932469 -62.964154 168.648386 -106.710124 -69.567969 -10.115916 0.823495 -11.431165 6.88227 -25.269104 -43.995543 16.513732 147.418509 35.432641 -161.533634 17.55105 52.893347 -36.475769 145.168852 -6.585281 110.021981 -105.172396 55.054645 69.719892 -82.816969 48.847987 -66.582357 96.5757 -13.844797 80.700349 112.037401 35.960184 7.004754 109.499809 78.260831 155.980589 0.04318 0.331881 -0.066756 105.162453 -50.114747 -173.700733 106.038097 -7.596265 -97.584614 -51.234617 -33.937515 3.635829
4.2718 44.7273 1.4384 -9.761574 -55.919481 16.40676 -3.93194 16.612616 -162.831721 1.942522 10.514884 -176.952712 -12.43763 19.190288 -50.045955 37.062775 3.796429 94.724485 -47.547121 13.688731 -30.483948 -66.921486 3.146305 -4.75909 -9.683612 30.891976 15.048719 93.619958 -45.033122 58.78201 -20.713937 51.72575 121.779152 2.788171 15.159086 4.69977 14.333355 -8.567791 -4.521738 82.805513 -67.076237 56.505905 -30.36832 26.331531 -8.930367 -168.43306 -20.10262 72.053559 2.819649 -10.142932 11.438746 -169.461341 -42.972552 -172.989737 -69.983245 -55.862076 -83.318106 40.75992 -23.79384 30.943668 -119.827398 -48.364677 -88.307789 -30.150249 0.541869 -28.479379 140.853322 39.038101 -149.546781 54.893861 32.39106 -25.04037 -11.263413 -43.409579 132.94788 175.048965 5.692973 -145.817396 76.597033 41.868241 -31.456476 -18.802002 0.194384 -29.539444 171.21668 -85.170402 -119.292098 -175.36397 -17.687456 -38.561736 69.661553 71.828635 -38.108511 144.005804 14.170919 -97.224777 16.801883 36.809639 -10.066631 134.584827 -2.382122 179.187494 91.020313 -37.410986 84.991296 135.410364 1.322758 130.9871 -86.027854 56.674755 -73.15227 106.951366 -5.103306 -63.389134 -99.287684 0.806006 133.22271 -46.927452 24.552318 -36.189968 41.684041 7.08323 28.619857 22.896359 -74.820807 69.342814 143.153093 63.097112 104.126391 -139.427612 56.418334 -133.513195
